<svg aria-hidden="true" style="position: absolute; width: 0; height: 0; overflow: hidden;" version="1.1" xmlns="http://www.w3.org/2000/svg" xmlns:xlink="http://www.w3.org/1999/xlink">
<defs>
<symbol id="icon-youtube" viewBox="0 0 42 32">
<title>youtube</title>
<path d="M27.17 14.827l-8.4-5.6c-0.221-0.142-0.49-0.227-0.779-0.227-0.239 0-0.465 0.058-0.664 0.16l0.008-0.004c-0.441 0.242-0.734 0.702-0.734 1.232 0 0.004 0 0.008 0 0.012v-0.001 11.2c-0 0.003-0 0.008-0 0.012 0 0.53 0.295 0.991 0.729 1.228l0.007 0.004c0.193 0.099 0.422 0.157 0.664 0.157h0c0.286-0.003 0.551-0.087 0.776-0.231l-0.006 0.004 8.4-5.6c0.385-0.254 0.635-0.684 0.635-1.173s-0.251-0.919-0.63-1.17l-0.005-0.003zM19.4 18.992v-5.984l4.48 2.992-4.48 2.992zM39.403 5.814c-0.338-1.321-1.281-2.367-2.51-2.842l-0.028-0.010c-5.986-2.31-15.541-2.293-16.066-2.293s-10.080-0.018-16.064 2.293c-1.257 0.483-2.201 1.53-2.533 2.823l-0.006 0.029c-0.453 1.733-0.997 4.918-0.997 10.186s0.544 8.453 0.997 10.186c0.338 1.321 1.281 2.368 2.51 2.842l0.028 0.010c5.741 2.224 14.736 2.293 15.942 2.293h0.246c1.206 0 10.202-0.070 15.942-2.293 1.256-0.484 2.2-1.53 2.531-2.823l0.006-0.029c0.454-1.733 0.997-4.918 0.997-10.186s-0.544-8.453-0.997-10.186zM36.688 25.485c-0.109 0.434-0.414 0.779-0.813 0.941l-0.009 0.003c-5.547 2.136-14.962 2.101-15.067 2.101h-0.016c-0.090 0-9.504 0.035-15.051-2.099-0.408-0.165-0.714-0.51-0.82-0.935l-0.002-0.009c-0.421-1.594-0.91-4.517-0.91-9.488 0-4.968 0.49-7.891 0.91-9.483 0.109-0.434 0.414-0.779 0.813-0.941l0.009-0.003c5.338-2.048 14.298-2.101 15.032-2.101h0.037c0.106 0 9.52-0.035 15.067 2.099 0.408 0.165 0.713 0.511 0.82 0.935l0.002 0.009c0.421 1.594 0.91 4.517 0.91 9.486s-0.49 7.893-0.91 9.485z"></path>
</symbol>
<symbol id="icon-wrong" viewBox="0 0 32 32">
<title>wrong</title>
<path d="M14.4 20.8h3.2v3.2h-3.2v-3.2zM14.4 8h3.2v9.6h-3.2v-9.6zM15.984 0c-8.832 0-15.984 7.168-15.984 16s7.152 16 15.984 16c8.848 0 16.016-7.168 16.016-16s-7.168-16-16.016-16zM16 28.8c-7.072 0-12.8-5.728-12.8-12.8s5.728-12.8 12.8-12.8 12.8 5.728 12.8 12.8-5.728 12.8-12.8 12.8z"></path>
</symbol>
<symbol id="icon-logo" viewBox="0 0 200 32">
<title>logo</title>
<path d="M0 28v-28h4.988l12.324 9.086h0.186l12.324-9.086h4.988v28h-5.956v-20.168l-8.454 5.952v14.216h-5.954v-14.216l-8.49-5.952v20.168h-5.956zM40.402 28v-28h5.958v28h-5.96zM51.936 28v-28h6.032l18.84 20.128v-20.128h5.956v28h-6.032l-18.84-20.168v20.168h-5.956zM88.34 28v-28h5.956v28h-5.956zM99.874 28v-28h4.99l12.322 9.086h0.186l12.324-9.086h4.99v28h-5.958v-20.168l-8.452 5.952v14.216h-5.956v-14.216l-8.488-5.952v20.168h-5.958zM138.044 28l11.988-28h9.196l11.988 28h-6.48l-2.53-5.914h-15.152l-2.534 5.914h-6.48zM149.212 16.996h10.834l-5.174-12.1h-0.484l-5.176 12.1zM174.572 28v-28h5.956v22.908h19.472v5.092h-25.428z"></path>
</symbol>
<symbol id="icon-menu-burger" viewBox="0 0 32 32">
<title>menu-burger</title>
<path stroke-linejoin="round" stroke-linecap="round" stroke-miterlimit="4" stroke-width="2" d="M28 13.333h-24M28 8h-24M28 18.667h-24M28 24h-24"></path>
</symbol>
<symbol id="icon-insta" viewBox="0 0 32 32">
<title>insta</title>
<path d="M16 8.364c-4.217 0-7.636 3.419-7.636 7.636s3.419 7.636 7.636 7.636v0c4.217 0 7.636-3.419 7.636-7.636s-3.419-7.636-7.636-7.636v0zM16 21.091c-2.812 0-5.091-2.279-5.091-5.091s2.279-5.091 5.091-5.091c2.812 0 5.091 2.279 5.091 5.091v0c-0.009 2.808-2.283 5.082-5.090 5.091h-0.001zM23.001 0.090h-14.001c-4.92 0.001-8.908 3.989-8.908 8.909 0 0.001 0 0.001 0 0.002v-0 14c0 0 0 0.001 0 0.001 0 4.92 3.989 8.909 8.909 8.909h14c0 0 0.001 0 0.001 0 4.92 0 8.909-3.989 8.909-8.909v-14.003c-0.001-4.92-3.989-8.908-8.909-8.908-0 0-0.001 0-0.002 0h0zM29.363 22.999c0 3.515-2.849 6.364-6.364 6.365h-13.999c-3.514-0.001-6.363-2.849-6.364-6.364v-14.002c0-3.515 2.849-6.364 6.364-6.364v0h14c3.514 0.001 6.362 2.85 6.362 6.364v0 14zM26.182 7.728c0 0.016 0.001 0.034 0.001 0.053 0 1.055-0.855 1.91-1.91 1.91s-1.91-0.855-1.91-1.91c0-0.019 0-0.037 0.001-0.055l-0 0.003c0.029-1.032 0.873-1.857 1.909-1.857s1.88 0.825 1.909 1.854l0 0.003z"></path>
</symbol>
<symbol id="icon-accept" viewBox="0 0 44 32">
<title>accept</title>
<path stroke-linejoin="round" stroke-linecap="round" stroke-miterlimit="4" stroke-width="6" d="M39.332 5l-23.832 23.832-10.832-10.832"></path>
</symbol>
<symbol id="icon-close-black-18dp-2-1" viewBox="0 0 32 32">
<title>close-black-18dp-2-1</title>
<path d="M32 3.224l-3.224-3.224-12.776 12.776-12.776-12.776-3.224 3.224 12.776 12.776-12.776 12.776 3.224 3.224 12.776-12.776 12.776 12.776 3.224-3.224-12.776-12.776 12.776-12.776z"></path>
</symbol>
<symbol id="icon-facebook" viewBox="0 0 32 32">
<title>facebook</title>
<path d="M31.167 16c0-8.376-6.79-15.167-15.167-15.167s-15.167 6.79-15.167 15.167c0 8.376 6.79 15.167 15.167 15.167v0c8.373-0.008 15.158-6.794 15.167-15.166v-0.001zM17.167 28.775v-9.275h3.5c0.644 0 1.167-0.522 1.167-1.167s-0.522-1.167-1.167-1.167v0h-3.5v-3.5c0-1.289 1.045-2.333 2.333-2.333v0h2.333c0.644 0 1.167-0.522 1.167-1.167s-0.522-1.167-1.167-1.167v0h-2.333c-2.574 0.008-4.658 2.093-4.667 4.666v3.501h-3.5c-0.644 0-1.167 0.522-1.167 1.167s0.522 1.167 1.167 1.167v0h3.5v9.275c-6.568-0.617-11.667-6.103-11.667-12.78 0-7.088 5.746-12.833 12.833-12.833s12.833 5.746 12.833 12.833c0 6.677-5.099 12.163-11.615 12.776l-0.051 0.004z"></path>
</symbol>
<symbol id="icon-Property-1check" viewBox="0 0 32 32">
<path fill="none" stroke="#fff" style="stroke: var(--color1, #fff)" stroke-linejoin="round" stroke-linecap="round" stroke-miterlimit="4" stroke-width="3.6923" d="M26.666 8l-14.666 14.666-6.666-6.666"></path>
</symbol>
<symbol id="notice" viewBox="0 0 32 32">
<path d="M15.5 3c-7.456 0-13.5 6.044-13.5 13.5s6.044 13.5 13.5 13.5 13.5-6.044 13.5-13.5-6.044-13.5-13.5-13.5zM15.5 27c-5.799 0-10.5-4.701-10.5-10.5s4.701-10.5 10.5-10.5 10.5 4.701 10.5 10.5-4.701 10.5-10.5 10.5zM15.5 10c-0.828 0-1.5 0.671-1.5 1.5v5.062c0 0.828 0.672 1.5 1.5 1.5s1.5-0.672 1.5-1.5v-5.062c0-0.829-0.672-1.5-1.5-1.5zM15.5 20c-0.828 0-1.5 0.672-1.5 1.5s0.672 1.5 1.5 1.5 1.5-0.672 1.5-1.5-0.672-1.5-1.5-1.5z"></path>
</symbol>
</defs>
</svg>
